<?xml version="1.0" encoding="utf-8"?>
<!-- Generator: Adobe Illustrator 27.5.0, SVG Export Plug-In . SVG Version: 6.00 Build 0)  -->
<svg version="1.1" id="Capa_1" xmlns="http://www.w3.org/2000/svg" xmlns:xlink="http://www.w3.org/1999/xlink" x="0px" y="0px"
	 viewBox="0 0 2122 2122" style="enable-background:new 0 0 2122 2122;" xml:space="preserve">
<path style="fill:#EDCB98;" d="M1797.409,1045.02v-0.014c0-15.016-5.169-29.666-15.016-43.786c-1.092-1.568-2.251-3.129-3.457-4.683
	c-0.417-0.536-0.866-1.068-1.296-1.603c-0.818-1.019-1.64-2.038-2.508-3.05c-0.534-0.626-1.099-1.247-1.652-1.869
	c-0.814-0.917-1.636-1.833-2.49-2.744c-0.616-0.657-1.25-1.311-1.885-1.965c-0.85-0.874-1.713-1.745-2.598-2.614
	c-0.676-0.664-1.361-1.326-2.059-1.987c-0.91-0.863-1.844-1.724-2.79-2.581c-0.714-0.648-1.426-1.295-2.161-1.939
	c-1-0.878-2.032-1.753-3.07-2.625c-0.732-0.617-1.453-1.234-2.202-1.847c-1.153-0.942-2.347-1.878-3.543-2.813
	c-0.682-0.534-1.342-1.07-2.039-1.602c-1.882-1.437-3.809-2.868-5.793-4.289c-0.454-0.327-0.935-0.648-1.396-0.973
	c-1.577-1.115-3.169-2.227-4.806-3.331c-0.832-0.561-1.695-1.116-2.543-1.674c-1.312-0.863-2.624-1.726-3.972-2.584
	c-0.953-0.605-1.933-1.207-2.905-1.81c-1.296-0.804-2.599-1.607-3.929-2.406c-1.026-0.615-2.067-1.228-3.111-1.839
	c-1.325-0.777-2.663-1.55-4.018-2.32c-1.083-0.616-2.173-1.23-3.275-1.841c-1.39-0.771-2.801-1.539-4.222-2.303
	c-1.095-0.59-2.188-1.18-3.302-1.767c-1.516-0.799-3.061-1.591-4.61-2.382c-1.067-0.545-2.123-1.093-3.207-1.634
	c-1.782-0.893-3.604-1.777-5.43-2.66c-0.887-0.429-1.754-0.863-2.652-1.29c-2.713-1.291-5.468-2.574-8.27-3.846
	c-0.761-0.345-1.548-0.685-2.315-1.028c-2.095-0.939-4.2-1.876-6.344-2.804c-1.144-0.494-2.313-0.984-3.471-1.475
	c-1.805-0.767-3.614-1.534-5.452-2.293c-1.286-0.531-2.593-1.057-3.896-1.584c-1.763-0.714-3.532-1.425-5.323-2.132
	c-1.352-0.533-2.715-1.062-4.083-1.591c-1.8-0.696-3.614-1.388-5.442-2.077c-1.381-0.52-2.768-1.039-4.163-1.555
	c-1.888-0.697-3.796-1.388-5.713-2.078c-1.366-0.491-2.729-0.984-4.111-1.472c-2.059-0.727-4.144-1.445-6.234-2.163
	c-1.278-0.438-2.544-0.881-3.835-1.316c-2.528-0.854-5.094-1.698-7.669-2.539c-0.878-0.286-1.739-0.578-2.621-0.863
	c-3.458-1.117-6.956-2.221-10.493-3.315c-1.038-0.321-2.1-0.635-3.144-0.953c-2.54-0.775-5.084-1.548-7.664-2.31
	c-1.407-0.417-2.837-0.825-4.256-1.238c-2.254-0.654-4.509-1.308-6.791-1.953c-1.553-0.439-3.122-0.873-4.688-1.308
	c-2.194-0.609-4.395-1.216-6.614-1.816c-1.627-0.44-3.263-0.877-4.904-1.312c-2.199-0.583-4.409-1.162-6.633-1.736
	c-1.673-0.433-3.352-0.865-5.04-1.293c-2.254-0.571-4.527-1.136-6.804-1.699c-1.678-0.415-3.352-0.831-5.044-1.24
	c-2.398-0.581-4.821-1.153-7.246-1.724c-1.592-0.375-3.174-0.755-4.777-1.125c-2.923-0.676-5.878-1.34-8.838-2.002
	c-1.128-0.253-2.241-0.512-3.376-0.761c-4.026-0.889-8.086-1.764-12.178-2.626c-0.211-0.044-0.42-0.091-0.633-0.136
	c-0.453-0.095-0.925-0.184-1.379-0.279c-5.723-1.197-11.514-2.366-17.362-3.509c-0.977-0.191-1.944-0.387-2.926-0.577
	c-5.944-1.15-11.963-2.267-18.029-3.362c-1.421-0.255-2.841-0.512-4.269-0.766c-5.984-1.062-12.023-2.097-18.121-3.105
	c-1.414-0.234-2.838-0.462-4.258-0.692c-6.287-1.021-12.616-2.022-19.019-2.983c-0.848-0.127-1.708-0.247-2.558-0.374
	c-6.011-0.892-12.077-1.756-18.184-2.596c-1.284-0.177-2.558-0.358-3.845-0.532c-6.396-0.865-12.854-1.694-19.351-2.5
	c-1.602-0.198-3.203-0.397-4.811-0.591c-6.496-0.788-13.036-1.548-19.628-2.274c-1.459-0.162-2.927-0.316-4.39-0.474
	c-6.88-0.742-13.797-1.462-20.777-2.138c-0.692-0.067-1.392-0.128-2.084-0.195c-6.71-0.642-13.471-1.249-20.269-1.828
	c-1.264-0.108-2.522-0.22-3.789-0.326c-6.98-0.582-14.012-1.126-21.079-1.639c-1.532-0.112-3.064-0.223-4.599-0.332
	c-7.089-0.5-14.216-0.969-21.388-1.4c-1.336-0.08-2.679-0.155-4.017-0.232c-7.531-0.44-15.094-0.852-22.711-1.213
	c-0.281-0.013-0.566-0.024-0.847-0.038c-7.54-0.354-15.129-0.664-22.748-0.941c-1.194-0.044-2.383-0.093-3.579-0.134
	c-7.475-0.26-14.992-0.479-22.539-0.665c-1.479-0.036-2.958-0.072-4.439-0.105c-7.564-0.171-15.159-0.309-22.79-0.403
	c-1.222-0.015-2.45-0.023-3.674-0.037c-8.043-0.087-16.111-0.143-24.223-0.143c-11.236,0-22.402,0.092-33.505,0.257
	c-0.928,0.014-1.852,0.032-2.779,0.047c-10.331,0.167-20.599,0.405-30.802,0.711c-1.089,0.032-2.178,0.065-3.265,0.099
	c-10.312,0.326-20.555,0.72-30.725,1.185c-0.721,0.033-1.447,0.062-2.168,0.095c-10.697,0.501-21.314,1.075-31.842,1.726
	c-0.55,0.034-1.095,0.073-1.645,0.107c-10.075,0.631-20.064,1.334-29.971,2.1c-1.117,0.086-2.229,0.176-3.344,0.264
	c-9.495,0.75-18.908,1.562-28.236,2.434c-1.098,0.102-2.201,0.203-3.296,0.307c-9.717,0.924-19.342,1.911-28.867,2.964
	c-0.488,0.054-0.982,0.105-1.47,0.159c-9.83,1.095-19.549,2.261-29.162,3.489c-0.883,0.113-1.758,0.231-2.639,0.345
	c-8.946,1.156-17.792,2.37-26.537,3.639c-1.129,0.164-2.256,0.329-3.381,0.494c-8.685,1.279-17.268,2.613-25.743,3.999
	c-0.882,0.145-1.771,0.286-2.651,0.431c-9.125,1.509-18.135,3.077-27.004,4.709c-0.281,0.051-0.557,0.106-0.838,0.158
	c-8.716,1.609-17.296,3.28-25.751,5.003c-0.502,0.102-1.011,0.201-1.512,0.303L635.634,602.512
	c12.627-9.647,24.109-20.85,35.884-31.574c3.665-3.337,7.356-6.632,11.126-9.808c6.196-5.22,12.58-10.16,19.386-14.481l-0.001-0.005
	c4.366-2.746,8.908-5.282,13.697-7.503c24.522-11.342,52.565-13.067,78.319-21.593c12.331-4.088,24.027-9.798,34.772-16.877
	c3.593-2.358,7.081-4.862,10.463-7.537c18.638-14.621,33.717-33.471,43.23-54.787c3.452-7.644,6.234-15.922,5.213-24.205
	c-2.078-17.194-18.955-28.502-34.243-37.447c-74.443-36.044-145.294-78.494-214.77-122.748
	c-34.736-22.09-69.086-44.706-103.437-67.327c-15.43-10.144-36.428-29.876-57.708-38.718c-6.131-2.533-12.297-4.19-18.321-4.473
	h-0.005c-0.915-0.034-1.862-0.068-2.743,0l-1.057,0.034c-0.091,0.007-0.183,0.017-0.274,0.023c-0.291,0.019-0.585,0.046-0.875,0.073
	c-0.181,0.016-0.36,0.023-0.541,0.045c-1.126,0.103-2.219,0.277-3.312,0.514c-0.037,0.008-0.075,0.008-0.113,0.016l-0.088,0.01
	l-0.221,0.023c-3.006,0.661-5.89,2.048-8.656,3.998c-3.137,2.21-6.119,5.146-8.943,8.684l0.005,0.02
	c-2.674,3.308-5.169,7.106-7.562,11.289c-15.325,26.568-25.26,67.435-30.509,83.289c-31.566,95.508-63.064,191.054-94.63,286.567
	c-8.843,26.777-35.301,84.838-10.076,109.954c18.497,18.426,49.605,11.523,78.071,2.646c7.435-2.29,14.658-4.721,21.456-6.87
	c7.891-2.504,15.221-4.653,21.491-5.744c38.224-6.694,77.403,2.748,116.226,1.973h0.009c2.911-0.034,5.786-0.141,8.697-0.316
	c24.917-1.556,49.387-8.355,71.545-19.473c3.829-1.921,7.574-3.992,11.262-6.153l102.13,261.717
	c-1.566,0.346-3.11,0.702-4.666,1.052c-0.805,0.182-1.612,0.363-2.415,0.545c-8.089,1.841-16.046,3.731-23.854,5.676
	c-0.3,0.075-0.604,0.147-0.903,0.222c-8.176,2.044-16.194,4.147-24.049,6.303c-0.205,0.057-0.405,0.114-0.609,0.17
	c-7.677,2.113-15.187,4.282-22.542,6.499c-0.195,0.059-0.403,0.114-0.598,0.173c-0.307,0.092-0.598,0.19-0.905,0.283
	c-5.417,1.642-10.759,3.309-15.995,5.007c-0.244,0.078-0.482,0.159-0.726,0.239c-5.164,1.68-10.238,3.386-15.221,5.118
	c-0.346,0.121-0.699,0.239-1.045,0.359c-4.822,1.683-9.539,3.396-14.185,5.127c-0.806,0.3-1.614,0.601-2.415,0.903
	c-4.47,1.684-8.859,3.389-13.159,5.117c-0.787,0.316-1.56,0.636-2.341,0.953c-4.382,1.782-8.699,3.578-12.897,5.404
	c-0.249,0.108-0.488,0.219-0.737,0.328c-4.029,1.759-7.953,3.541-11.806,5.34c-0.705,0.329-1.423,0.656-2.122,0.986
	c-3.789,1.791-7.479,3.602-11.092,5.429c-0.824,0.417-1.642,0.835-2.457,1.254c-3.57,1.834-7.066,3.684-10.456,5.554
	c-0.623,0.344-1.225,0.691-1.841,1.036c-3.266,1.826-6.455,3.667-9.547,5.525c-0.345,0.208-0.706,0.412-1.049,0.621
	c-3.23,1.959-6.332,3.94-9.364,5.934c-0.636,0.418-1.278,0.835-1.905,1.254c-2.917,1.951-5.736,3.919-8.46,5.903
	c-0.58,0.423-1.149,0.848-1.721,1.272c-2.755,2.042-5.432,4.098-7.979,6.173c-0.292,0.238-0.565,0.478-0.855,0.717
	c-2.438,2.008-4.772,4.033-7.014,6.071c-0.333,0.302-0.681,0.603-1.009,0.906c-2.285,2.11-4.442,4.238-6.512,6.377
	c-0.413,0.428-0.825,0.855-1.229,1.283c-2.016,2.134-3.931,4.281-5.728,6.442c-0.303,0.365-0.59,0.732-0.886,1.097
	c-1.849,2.276-3.613,4.563-5.216,6.868c-9.817,14.091-14.972,28.711-14.987,43.698c-20.215,65.968-31.101,136.024-31.101,208.609
	c0,297.7,183.02,552.657,442.681,658.489c82.735,33.72,173.247,52.297,268.102,52.297c34.636,0,68.677-2.475,101.983-7.269
	c344.234-49.447,608.793-345.583,608.793-703.517C1828.498,1181.001,1817.624,1110.959,1797.409,1045.02z"/>
<path style="fill:#ED944B;" d="M1797.409,1045.02c0,19.927-9.11,39.196-26.124,57.442c-34.475,37-101.499,69.763-190.836,95.263
	c-121.341,34.635-283.924,55.846-462.727,55.846c-8.734,0-17.415-0.067-26.069-0.167c-2.587-0.03-5.161-0.073-7.74-0.112
	c-6.366-0.096-12.707-0.218-19.026-0.368c-2.554-0.06-5.11-0.116-7.655-0.185c-8.393-0.228-16.753-0.487-25.054-0.807
	c-0.144-0.006-0.288-0.009-0.432-0.014c-8.447-0.328-16.829-0.717-25.178-1.138c-2.462-0.124-4.909-0.261-7.362-0.394
	c-6.157-0.332-12.285-0.69-18.385-1.073c-2.456-0.154-4.914-0.304-7.36-0.467c-7.93-0.526-15.821-1.083-23.645-1.693
	c-0.275-0.022-0.555-0.039-0.83-0.061c-6.422-0.503-12.801-1.039-19.148-1.598c-1.636-0.144-3.256-0.299-4.887-0.447
	c-2.374-0.214-4.729-0.442-7.091-0.665c-5.836-0.55-11.638-1.123-17.407-1.72c-2.372-0.245-4.749-0.487-7.11-0.74
	c-7.396-0.794-14.747-1.616-22.023-2.485c-0.407-0.048-0.821-0.092-1.228-0.141c-7.646-0.919-15.204-1.89-22.713-2.89
	c-2.241-0.298-4.46-0.608-6.689-0.913c-5.486-0.753-10.933-1.526-16.343-2.322c-2.273-0.334-4.551-0.666-6.81-1.008
	c-6.809-1.03-13.565-2.087-20.242-3.185c-0.52-0.085-1.051-0.165-1.57-0.25c-7.141-1.181-14.183-2.41-21.168-3.667
	c-2.11-0.379-4.195-0.77-6.29-1.156c-5.087-0.938-10.131-1.895-15.131-2.872c-2.139-0.417-4.282-0.833-6.403-1.258
	c-6.14-1.23-12.219-2.484-18.219-3.773c-0.661-0.143-1.341-0.277-2-0.42c-6.55-1.417-12.989-2.878-19.366-4.364
	c-2.004-0.467-3.978-0.944-5.963-1.417c-4.575-1.09-9.103-2.198-13.585-3.323c-2.036-0.511-4.076-1.02-6.092-1.539
	c-5.387-1.385-10.707-2.794-15.95-4.228c-0.805-0.22-1.633-0.432-2.435-0.654c-5.895-1.629-11.671-3.296-17.376-4.987
	c-1.864-0.552-3.692-1.115-5.535-1.672c-4.038-1.224-8.027-2.462-11.965-3.716c-1.89-0.603-3.784-1.203-5.651-1.812
	c-4.655-1.519-9.236-3.059-13.741-4.619c-0.86-0.298-1.751-0.587-2.605-0.886c-5.185-1.817-10.241-3.669-15.222-5.541
	c-1.704-0.64-3.367-1.29-5.045-1.937c-3.459-1.332-6.868-2.676-10.223-4.034c-1.717-0.695-3.436-1.39-5.127-2.093
	c-3.872-1.609-7.665-3.237-11.388-4.882c-0.903-0.398-1.842-0.788-2.735-1.189c-0.038-0.016-0.078-0.032-0.116-0.05
	c-1.229-0.55-2.37-1.121-3.582-1.676c-3.728-1.706-7.456-3.414-11.023-5.157c-2.46-1.2-4.773-2.432-7.154-3.648
	c-2.236-1.144-4.544-2.271-6.71-3.43c-3.234-1.728-6.303-3.489-9.379-5.247c-1.188-0.68-2.454-1.345-3.619-2.028
	c-3.547-2.083-6.923-4.198-10.244-6.321c-0.602-0.385-1.259-0.76-1.853-1.146c-3.531-2.294-6.892-4.618-10.155-6.956
	c-0.322-0.232-0.682-0.456-1.002-0.687c-3.474-2.516-6.783-5.058-9.941-7.624c-0.075-0.061-0.161-0.121-0.236-0.182
	c-6.456-5.26-12.245-10.621-17.322-16.074c-17.028-18.246-26.136-37.515-26.136-57.457v-0.044
	c-20.215,65.968-31.101,136.024-31.101,208.609c0,297.7,183.02,552.657,442.681,658.489c82.735,33.72,173.247,52.297,268.102,52.297
	c34.636,0,68.677-2.475,101.983-7.269c344.234-49.447,608.793-345.583,608.793-703.517
	C1828.498,1181.001,1817.624,1110.959,1797.409,1045.02z"/>
<path style="fill:#B66516;" d="M1580.449,1197.725c-121.341,34.635-283.924,55.846-462.727,55.846
	c-8.734,0-17.415-0.067-26.069-0.167c-2.587-0.03-5.161-0.073-7.74-0.112c-6.366-0.096-12.707-0.218-19.026-0.368
	c-2.554-0.06-5.11-0.116-7.655-0.185c-8.393-0.228-16.753-0.487-25.054-0.807c-0.144-0.006-0.288-0.009-0.432-0.014
	c-8.447-0.328-16.829-0.717-25.178-1.138c-2.462-0.124-4.909-0.261-7.362-0.394c-6.157-0.332-12.285-0.69-18.385-1.073
	c-2.456-0.154-4.914-0.304-7.36-0.467c-7.93-0.526-15.821-1.083-23.645-1.693c-0.275-0.022-0.555-0.039-0.83-0.061
	c-6.422-0.503-12.801-1.039-19.148-1.598c-1.636-0.144-3.256-0.299-4.887-0.447c-2.374-0.214-4.729-0.442-7.091-0.665
	c-5.836-0.55-11.638-1.123-17.407-1.72c-2.372-0.245-4.749-0.487-7.11-0.74c-7.396-0.794-14.747-1.616-22.023-2.485
	c-0.407-0.048-0.821-0.092-1.228-0.141c-7.646-0.919-15.204-1.89-22.713-2.89c-2.241-0.298-4.46-0.608-6.689-0.913
	c-5.486-0.753-10.933-1.526-16.343-2.322c-2.273-0.334-4.551-0.666-6.81-1.008c-6.809-1.03-13.565-2.087-20.242-3.185
	c-0.52-0.085-1.051-0.165-1.57-0.25c-7.141-1.181-14.183-2.41-21.168-3.667c-2.11-0.379-4.195-0.77-6.29-1.156
	c-5.087-0.938-10.131-1.895-15.131-2.872c-2.139-0.417-4.282-0.833-6.403-1.258c-6.14-1.23-12.219-2.484-18.219-3.773
	c-0.661-0.143-1.341-0.277-2-0.42c-6.55-1.417-12.989-2.878-19.366-4.364c-2.004-0.467-3.978-0.944-5.963-1.417
	c-4.575-1.09-9.103-2.198-13.585-3.323c-2.036-0.511-4.076-1.02-6.092-1.539c-5.387-1.385-10.707-2.794-15.95-4.228
	c-0.805-0.22-1.633-0.432-2.435-0.654c-5.895-1.629-11.671-3.296-17.376-4.987c-1.864-0.552-3.692-1.115-5.535-1.672
	c-4.038-1.224-8.027-2.462-11.965-3.716c-1.89-0.603-3.784-1.203-5.651-1.812c-4.655-1.519-9.236-3.059-13.741-4.619
	c-0.86-0.298-1.751-0.587-2.605-0.886c-5.185-1.817-10.241-3.669-15.222-5.541c-1.704-0.64-3.367-1.29-5.045-1.937
	c-3.459-1.332-6.868-2.676-10.223-4.034c-1.717-0.695-3.436-1.39-5.127-2.093c-3.872-1.609-7.665-3.237-11.388-4.882
	c-0.903-0.398-1.842-0.788-2.735-1.189c-0.038-0.016-0.078-0.032-0.116-0.05c-1.229-0.55-2.37-1.121-3.582-1.676
	c-3.728-1.706-7.456-3.414-11.023-5.157c-2.46-1.2-4.773-2.432-7.154-3.648c-2.236-1.144-4.544-2.271-6.71-3.43
	c-3.234-1.728-6.303-3.489-9.379-5.247c-1.188-0.68-2.454-1.345-3.619-2.028c-3.547-2.083-6.923-4.198-10.244-6.321
	c-0.602-0.385-1.259-0.76-1.853-1.146c-3.531-2.294-6.892-4.618-10.155-6.956c-0.322-0.232-0.682-0.456-1.002-0.687
	c-3.474-2.516-6.783-5.058-9.941-7.624c-0.075-0.061-0.161-0.121-0.236-0.182c-6.456-5.26-12.245-10.621-17.322-16.074
	c-17.028-18.246-26.136-37.515-26.136-57.457v-0.044c-20.215,65.968-31.101,136.024-31.101,208.609
	c0,297.7,183.02,552.657,442.681,658.489c82.735,33.72,173.247,52.297,268.102,52.297c34.636,0,68.677-2.475,101.983-7.269
	c23.946-15.216,47.216-31.479,69.515-49.145c174.811-138.479,277.325-357.919,292.01-580.452
	C1584.082,1284.216,1583.677,1240.863,1580.449,1197.725z"/>
<path style="fill:#934915;" d="M876.612,1277.824c16.9-13.348,34.791-23.682,53.227-32.329c-1.636-0.144-3.256-0.299-4.887-0.447
	c-2.374-0.214-4.729-0.442-7.091-0.665c-5.836-0.55-11.638-1.123-17.407-1.72c-2.372-0.245-4.749-0.487-7.11-0.74
	c-7.396-0.794-14.747-1.616-22.023-2.485c-0.407-0.048-0.821-0.092-1.228-0.141c-7.646-0.919-15.204-1.89-22.713-2.89
	c-2.241-0.298-4.46-0.608-6.689-0.913c-5.486-0.753-10.933-1.526-16.343-2.322c-2.273-0.334-4.551-0.666-6.81-1.008
	c-6.809-1.03-13.565-2.087-20.242-3.185c-0.52-0.085-1.051-0.165-1.57-0.25c-7.141-1.181-14.183-2.41-21.168-3.667
	c-2.11-0.379-4.195-0.77-6.29-1.156c-5.087-0.938-10.131-1.895-15.131-2.872c-2.139-0.417-4.282-0.833-6.403-1.258
	c-6.14-1.23-12.219-2.484-18.219-3.773c-0.661-0.143-1.341-0.277-2-0.42c-6.55-1.417-12.989-2.878-19.366-4.364
	c-2.004-0.467-3.978-0.944-5.963-1.417c-4.575-1.09-9.103-2.198-13.585-3.323c-2.036-0.511-4.076-1.02-6.092-1.539
	c-5.387-1.385-10.707-2.794-15.95-4.228c-0.805-0.22-1.633-0.432-2.435-0.654c-5.895-1.629-11.671-3.296-17.376-4.987
	c-1.864-0.552-3.692-1.115-5.535-1.672c-4.038-1.224-8.027-2.462-11.965-3.716c-1.89-0.603-3.784-1.203-5.651-1.812
	c-4.655-1.519-9.236-3.059-13.741-4.619c-0.86-0.298-1.751-0.587-2.605-0.886c-5.185-1.817-10.241-3.669-15.222-5.541
	c-1.704-0.64-3.367-1.29-5.045-1.937c-3.459-1.332-6.868-2.676-10.223-4.034c-1.717-0.695-3.436-1.39-5.127-2.093
	c-3.872-1.609-7.665-3.237-11.388-4.882c-0.903-0.398-1.842-0.788-2.735-1.189c-0.038-0.016-0.078-0.032-0.116-0.05
	c-1.229-0.55-2.37-1.121-3.582-1.676c-3.728-1.706-7.456-3.414-11.023-5.157c-2.46-1.2-4.773-2.432-7.154-3.648
	c-2.236-1.144-4.544-2.271-6.71-3.43c-3.234-1.728-6.303-3.489-9.379-5.247c-1.188-0.68-2.454-1.345-3.619-2.028
	c-3.547-2.083-6.923-4.198-10.244-6.321c-0.602-0.385-1.259-0.76-1.853-1.146c-3.531-2.294-6.892-4.618-10.155-6.956
	c-0.322-0.232-0.682-0.456-1.002-0.687c-3.474-2.516-6.783-5.058-9.941-7.624c-0.075-0.061-0.161-0.121-0.236-0.182
	c-6.456-5.26-12.245-10.621-17.322-16.074c-17.028-18.246-26.136-37.515-26.136-57.457v-0.044
	c-20.215,65.968-31.101,136.024-31.101,208.609c0,297.7,183.02,552.657,442.681,658.489
	c-43.815-64.799-78.087-135.098-96.463-211.069C716.67,1550.096,754.794,1374.024,876.612,1277.824z"/>
<path style="fill:#E2E3E2;" d="M1574.754,1005.552c-120.701-33.681-281.062-54.197-457.032-54.197
	c-121.986,0-236.394,9.894-335.363,27.158l-41.766-107.031l-0.004-0.008L635.634,602.512c-0.215,0.164-0.424,0.336-0.64,0.499
	c-0.25,0.203-0.5,0.408-0.758,0.602c-0.219,0.163-0.452,0.305-0.672,0.468c-4.859,3.593-9.938,6.888-15.164,9.951l102.13,261.717
	l41.54,106.45c-142.834,26.971-250.757,69.666-297.895,120.265c5.078,5.453,10.866,10.814,17.322,16.074
	c0.075,0.061,0.161,0.12,0.236,0.182c3.158,2.565,6.466,5.107,9.941,7.624c0.32,0.231,0.68,0.455,1.002,0.687
	c3.263,2.338,6.623,4.662,10.155,6.956c0.594,0.386,1.251,0.761,1.853,1.146c3.321,2.123,6.697,4.238,10.244,6.321
	c1.164,0.683,2.43,1.348,3.619,2.028c3.076,1.759,6.145,3.52,9.379,5.247c2.166,1.158,4.474,2.286,6.71,3.43
	c2.381,1.217,4.695,2.448,7.154,3.648c3.567,1.743,7.294,3.45,11.023,5.157c1.212,0.555,2.353,1.125,3.582,1.676
	c0.038,0.018,0.078,0.034,0.116,0.05c0.893,0.401,1.833,0.791,2.735,1.189c3.723,1.644,7.516,3.273,11.388,4.882
	c1.69,0.703,3.409,1.397,5.127,2.093c3.355,1.359,6.764,2.703,10.223,4.034c1.678,0.647,3.341,1.297,5.045,1.937
	c4.98,1.872,10.036,3.724,15.222,5.541c0.855,0.299,1.746,0.588,2.605,0.886c4.506,1.56,9.086,3.1,13.741,4.619
	c1.867,0.609,3.761,1.209,5.651,1.812c3.937,1.254,7.927,2.493,11.965,3.716c1.843,0.558,3.671,1.12,5.535,1.672
	c5.705,1.691,11.481,3.358,17.376,4.987c0.801,0.222,1.629,0.434,2.435,0.654c5.242,1.434,10.563,2.843,15.95,4.228
	c2.016,0.519,4.056,1.028,6.092,1.539c4.481,1.126,9.01,2.233,13.585,3.323c1.985,0.474,3.959,0.95,5.963,1.417
	c6.377,1.486,12.816,2.947,19.366,4.364c0.66,0.142,1.339,0.277,2,0.42c6,1.289,12.079,2.543,18.219,3.773
	c2.122,0.425,4.265,0.841,6.403,1.258c5,0.977,10.044,1.934,15.131,2.872c2.095,0.386,4.18,0.777,6.29,1.156
	c6.985,1.257,14.027,2.486,21.168,3.667c0.519,0.085,1.05,0.165,1.57,0.25c6.678,1.098,13.433,2.155,20.242,3.185
	c2.259,0.342,4.537,0.673,6.81,1.008c5.409,0.796,10.856,1.569,16.343,2.322c2.229,0.305,4.448,0.615,6.689,0.913
	c7.509,1,15.067,1.972,22.713,2.89c0.407,0.049,0.822,0.093,1.228,0.141c7.276,0.869,14.627,1.691,22.023,2.485
	c2.361,0.253,4.738,0.496,7.11,0.74c5.768,0.597,11.571,1.17,17.407,1.72c2.363,0.223,4.718,0.45,7.091,0.665
	c1.631,0.148,3.251,0.303,4.887,0.447c6.347,0.559,12.727,1.095,19.148,1.598c0.275,0.022,0.554,0.039,0.83,0.061
	c7.824,0.61,15.715,1.167,23.645,1.693c2.446,0.162,4.904,0.312,7.36,0.467c6.1,0.383,12.228,0.741,18.385,1.073
	c2.453,0.132,4.9,0.269,7.362,0.394c8.349,0.421,16.731,0.81,25.178,1.138c0.144,0.005,0.288,0.008,0.432,0.014
	c8.301,0.32,16.661,0.58,25.054,0.807c2.545,0.069,5.101,0.125,7.655,0.185c6.319,0.15,12.66,0.271,19.026,0.368
	c2.579,0.039,5.153,0.082,7.74,0.112c8.654,0.1,17.335,0.167,26.069,0.167c178.802,0,341.386-21.211,462.727-55.846
	c89.337-25.5,156.362-58.262,190.836-95.263C1736.06,1064.685,1666.993,1031.267,1574.754,1005.552z"/>
<path style="fill:#FFFEFD;" d="M1117.722,951.354c-121.986,0-236.394,9.894-335.363,27.158l-41.766-107.031l-0.004-0.008
	L635.634,602.512c-0.215,0.164-0.424,0.336-0.64,0.499c-0.25,0.203-0.5,0.408-0.758,0.602c-0.219,0.163-0.452,0.305-0.672,0.468
	c-4.859,3.593-9.938,6.888-15.164,9.951l102.13,261.717l41.54,106.45c-142.834,26.971-250.757,69.666-297.895,120.265
	c5.078,5.453,10.866,10.814,17.322,16.074c0.075,0.061,0.161,0.12,0.236,0.182c3.158,2.565,6.466,5.107,9.941,7.624
	c0.32,0.231,0.68,0.455,1.002,0.687c3.263,2.338,6.623,4.662,10.155,6.956c0.594,0.386,1.251,0.761,1.853,1.146
	c3.321,2.123,6.697,4.238,10.244,6.321c1.164,0.683,2.43,1.348,3.619,2.028c3.076,1.759,6.145,3.52,9.379,5.247
	c2.166,1.158,4.474,2.286,6.71,3.43c2.381,1.217,4.695,2.448,7.154,3.648c3.567,1.743,7.294,3.45,11.023,5.157
	c1.212,0.555,2.353,1.125,3.582,1.676c5.878-6.874,13.32-12.697,20.792-17.851c59.396-40.964,134.894-57.876,206.087-46.193
	c77.554,12.745,152.645,57.774,229.703,42.31c11.313-2.271,22.865-6.154,30.831-14.495c7.961-8.351,11.089-22.207,4.429-31.635
	c-3.328-4.721-8.6-7.805-11.976-12.511c-10.743-15.074,3.493-35.81,19.42-45.247c27.381-16.205,60.492-19.172,92.307-19.332
	c46.436-0.244,92.901,4.618,138.28,14.494c76.969,16.755,157.564,47.742,231.771,21.272c23.995-8.56,47.118-24.702,56.716-47.898
	C1454.053,971.871,1293.693,951.354,1117.722,951.354z"/>
<path style="fill:#FFE8A1;" d="M887.722,414.142c-2.078-17.194-18.955-28.502-34.243-37.447
	c-74.443-36.044-145.294-78.494-214.77-122.748c-34.736-22.09-69.086-44.706-103.437-67.327
	c-15.43-10.144-36.428-29.876-57.708-38.718c-6.131-2.533-12.297-4.19-18.321-4.473h-0.005c-1.371-0.064-2.725-0.031-4.075,0.057
	c-0.291,0.019-0.585,0.046-0.875,0.073c-1.288,0.118-2.572,0.289-3.854,0.56c-0.037,0.008-0.075,0.008-0.113,0.016l-0.088,0.01
	l-0.205,0.023c-3.019,0.661-5.905,2.048-8.672,3.998c-3.137,2.21-6.119,5.146-8.943,8.684l0.005,0.02
	c-2.674,3.308-5.169,7.106-7.562,11.289c-15.325,26.568-25.26,67.435-30.509,83.289c-31.566,95.508-63.064,191.054-94.63,286.567
	c-8.843,26.777-35.301,84.838-10.076,109.954c18.497,18.426,49.605,11.523,78.071,2.646c7.435-2.29,14.658-4.721,21.456-6.87
	c7.891-2.504,15.221-4.653,21.491-5.744c38.224-6.694,77.403,2.748,116.226,1.973h0.009c2.911-0.034,5.786-0.141,8.697-0.316
	c24.917-1.556,49.387-8.355,71.545-19.473c3.829-1.921,7.574-3.992,11.262-6.153l102.13,261.717l41.54,106.45l21.945,56.237
	l8.508,21.801c2.022,5.184,7.922,7.771,13.106,5.749c5.187-2.022,7.774-7.922,5.749-13.106l-6.65-17.043l-22.369-57.324
	l-41.766-107.031l-0.004-0.008L635.634,602.512c12.627-9.647,24.109-20.85,35.884-31.574c3.665-3.337,7.356-6.632,11.126-9.808
	c6.196-5.22,12.58-10.16,19.386-14.481l-0.001-0.005c4.366-2.746,8.908-5.282,13.697-7.503
	c24.522-11.342,52.565-13.067,78.319-21.593c12.331-4.088,24.027-9.798,34.772-16.877c3.593-2.358,7.081-4.862,10.463-7.537
	c18.638-14.621,33.717-33.471,43.23-54.787C885.961,430.703,888.743,422.425,887.722,414.142z M634.237,603.613
	c-0.219,0.163-0.452,0.305-0.672,0.468c0.217-0.16,0.444-0.306,0.659-0.468c0.26-0.195,0.51-0.405,0.77-0.602
	C634.744,603.215,634.495,603.419,634.237,603.613z"/>
<path style="fill:#934915;" d="M957.893,1350.467c-11.413,4.789-22.271,10.865-33.201,16.657
	c-10.723,5.681-22.546,10.821-31.591,19.021c-2.317,2.1,0.134,5.783,2.95,5.068c11.108-2.831,21.271-9.354,31.279-14.807
	c11.245-6.124,22.806-11.951,33.457-19.074C964.083,1355.125,962.046,1348.723,957.893,1350.467z"/>
<path style="fill:#934915;" d="M877.357,1468.075c8.283-2.67,15.369-8.336,22.119-13.69c8.139-6.451,16.098-13.106,23.686-20.2
	c3.369-3.148-1.06-9.091-4.989-6.465c-8.042,5.369-15.783,11.133-23.398,17.086c-7.33,5.729-15.266,11.683-20.127,19.747
	C873.598,1466.297,875.35,1468.723,877.357,1468.075z"/>
<path style="fill:#934915;" d="M886.3,1523.578c5.478-5.754,11.259-11.215,17.449-16.2c3.932-3.162-1.259-9.944-5.428-7.035
	c-13.298,9.286-28.229,21.496-33.094,37.603c-0.877,2.899,2.67,4.39,4.687,2.729C876.068,1535.627,880.831,1529.322,886.3,1523.578z
	"/>
<path style="fill:#934915;" d="M827.864,1578.886c-11.54-12.673-25.627-22.826-39.829-32.419c-3.734-2.519-8.171,3.225-4.826,6.256
	c12.699,11.503,25.927,22.748,40.982,30.928C827.25,1585.312,830.188,1581.439,827.864,1578.886z"/>
<path style="fill:#934915;" d="M794.015,1456.752c9.705,2.124,18.597,3.518,28.504,3.074c2.972-0.132,3.165-3.835,0.66-4.887
	c-4.495-1.895-8.241-3.547-13.074-4.565c-4.541-0.955-9.115-1.613-13.707-2.261C790.863,1447.334,788.244,1455.49,794.015,1456.752z
	"/>
<path style="fill:#934915;" d="M1389.77,1655.198c-13.271,6.563-24.107,18.241-34.996,28.097
	c-12.224,11.065-24.77,22.026-36.268,33.837c-4.112,4.219,1.944,9.905,6.334,6.339c12.799-10.402,24.872-21.924,36.999-33.111
	c10.787-9.954,23.191-19.581,30.904-32.19C1393.941,1656.206,1391.622,1654.282,1389.77,1655.198z"/>
<path style="fill:#934915;" d="M1441.346,1621.965c-10.597,21.881-17.691,47.069-14.392,71.503c0.278,2.06,3.459,1.807,3.927,0
	c5.944-22.996,9.637-46.032,17.082-68.716C1449.225,1620.908,1443.149,1618.248,1441.346,1621.965z"/>
<path style="fill:#934915;" d="M1375.7,1582.701c-1.198,1.715,1.115,3.786,2.787,2.787c21.125-12.648,38.738-32.619,56.419-49.535
	c3.936-3.766-1.954-9.578-5.949-5.954C1410.852,1546.428,1389.809,1562.55,1375.7,1582.701z"/>
<path style="fill:#934915;" d="M1503.081,1518.379c1.218,2.348,4.195,0.911,4.468-1.208c1.374-10.757-1.286-21.764-3.035-32.389
	c-1.988-12.058-3.717-24.278-6.943-36.073c-1.291-4.721-9.233-3.976-8.799,1.189c0.984,11.771,3.401,23.376,5.559,34.982
	C1496.44,1496.206,1497.722,1508.075,1503.081,1518.379z"/>
<path style="fill:#934915;" d="M1422.462,1400.367c21.744-20.74,40.146-48.808,56.322-74.012c2.271-3.537-3.089-7.815-5.9-4.551
	c-19.586,22.757-41.213,48.331-54.899,75.108C1416.528,1399.758,1420.055,1402.662,1422.462,1400.367z"/>
<path style="fill:#934915;" d="M1520.464,1324.163c1.301,1.925,5.052,1.452,4.809-1.301c-1.033-11.508-5.252-22.402-10.388-32.668
	c-1.929-3.849-7.571-1.077-6.699,2.826C1510.613,1303.87,1514.189,1314.896,1520.464,1324.163z"/>
<path style="fill:#934915;" d="M1256.26,1820.323c-36.122,3.508-73.447,18.27-108.102,28.653c-4.56,1.364-2.655,8.409,1.973,7.152
	c34.899-9.486,74.441-16.658,106.952-32.77C1258.487,1822.662,1257.863,1820.167,1256.26,1820.323z"/>
<path style="fill:#934915;" d="M1337.234,1788.63c-12.39,15.566-25.934,31.703-34.606,49.705c-1.193,2.475,1.866,5.252,3.981,3.069
	c13.914-14.348,24.428-32.599,34.748-49.593C1342.857,1789.336,1339.125,1786.252,1337.234,1788.63z"/>
<path style="fill:#934915;" d="M903.579,1719.465c-5.554,15.259-10.531,30.65-15.199,46.207
	c-4.086,13.603-9.625,27.303-10.222,41.583c-0.112,2.665,3.596,3.488,4.889,1.325c7.342-12.263,10.212-26.831,14.263-40.448
	c4.628-15.547,8.911-31.123,12.638-46.913C910.936,1717.034,905.018,1715.504,903.579,1719.465z"/>
<path style="fill:#934915;" d="M943.744,1683.758c-2.141-3.426-8.575-1.199-6.864,2.894c9.025,21.579,22.843,42.845,41.266,57.516
	c2.587,2.061,7.345-0.643,5.045-3.893C969.873,1721.444,956.009,1703.363,943.744,1683.758z"/>
<path style="fill:#934915;" d="M943.613,1790.043c-0.974-3.109-6.263-2.753-5.956,0.804c1.279,14.811,4.675,29.145,8.455,43.498
	c3.657,13.89,6.57,29.69,14.756,41.651c1.359,1.988,5.05,1.466,4.889-1.325c-0.774-13.54-6.626-26.665-10.246-39.698
	C951.362,1820.035,948.244,1804.839,943.613,1790.043z"/>
<path style="fill:#934915;" d="M859.401,1650.774c-8.765,6.207-15.16,15.152-22.015,23.318
	c-7.615,9.067-15.035,18.265-22.395,27.542c-2.538,3.201,1.71,7.771,4.609,4.609c7.976-8.697,15.861-17.432,23.589-26.348
	c7.001-8.073,15.04-15.874,19.802-25.53C864.044,1652.23,861.725,1649.127,859.401,1650.774z"/>
<path style="fill:#934915;" d="M1057.094,1575.573c-17.662-3.352-36.112-1.213-53.998-0.516c-18.07,0.711-36.531,0.467-54.312,3.941
	c-3.452,0.677-2.227,5.369,0.77,5.691c18.938,2.042,38.638,0.005,57.659-0.916c16.638-0.809,33.783-0.375,49.881-4.886
	C1058.643,1578.452,1058.823,1575.899,1057.094,1575.573z"/>
<path style="fill:#934915;" d="M966.919,1532.874c26.93-8.019,52.982-25.515,77.61-38.884c4.185-2.271,0.507-8.366-3.698-6.329
	c-25.237,12.244-54.436,23.245-76.684,40.448C961.822,1529.902,964.361,1533.634,966.919,1532.874z"/>
<path style="fill:#934915;" d="M1025.747,1409.868c-2.963,3.094,1.5,7.469,4.672,4.673c24.429-21.579,51.547-43.22,70.879-69.618
	c1.34-1.831-1.276-4.316-3.094-3.094C1071.043,1360.046,1048.295,1386.34,1025.747,1409.868z"/>
<path style="fill:#934915;" d="M1123.569,1407.276c13.14-22.465,22.134-50.056,29.281-74.967c0.789-2.743-3.391-4.658-4.711-1.988
	c-11.513,23.298-23.454,49.71-28.872,75.142C1118.726,1408.007,1122.175,1409.663,1123.569,1407.276z"/>
<path style="fill:#934915;" d="M1013.42,1327.763c23.649-3.372,46.63-14.514,68.195-24.473c3.182-1.466,0.926-6.621-2.373-5.622
	c-22.641,6.855-47.255,13.832-67.113,27.035C1010.468,1325.81,1011.583,1328.026,1013.42,1327.763z"/>
<path style="fill:#934915;" d="M889.513,1310.35c13.191-1.511,26.217-3.615,39.294-5.929c12.638-2.241,26.804-2.845,38.08-9.233
	c1.437-0.814,1.33-3.518-0.497-3.805c-11.457-1.783-22.665,1.676-33.98,3.747c-14.67,2.68-29.26,5.472-43.727,9.087
	C885.362,1305.05,885.947,1310.76,889.513,1310.35z"/>
<path style="fill:#934915;" d="M1276.869,1432.421c-1.686,2.178,0.463,6.027,3.235,4.195c29.676-19.605,56.351-48.702,80.706-74.456
	c2.655-2.806-1.272-6.514-4.156-4.161C1329.371,1380.211,1298.491,1404.528,1276.869,1432.421z"/>
<path style="fill:#934915;" d="M1358.881,1420.913c0.419,15.668,2.46,31.006,4.594,46.524c1.813,13.15,2.212,27.703,8.716,39.435
	c0.619,1.11,2.426,0.886,2.733-0.356c3.196-13.038-0.239-27.196-1.949-40.365c-2.012-15.532-4.068-30.865-7.786-46.09
	C1364.338,1416.552,1358.784,1417.273,1358.881,1420.913z"/>
<path style="fill:#934915;" d="M1322.867,1503.758c-26.251,21.125-53.72,44.034-74.597,70.611c-1.272,1.622,0.356,4.497,2.417,3.128
	c28.36-18.836,53.451-44.507,76.726-69.193C1330.311,1505.229,1326.028,1501.215,1322.867,1503.758z"/>
<path style="fill:#934915;" d="M1433.04,1486.077c1.661-13.569-4.141-28.151-10.899-39.654c-1.71-2.914-6.836-1.004-5.623,2.368
	c4.473,12.443,6.651,25.69,11.279,37.992C1428.893,1489.697,1432.674,1489.073,1433.04,1486.077z"/>
<path style="fill:#934915;" d="M1395.675,1331.554c7.649-9.491,12.994-20.41,19.532-30.685c7.971-12.511,16.799-24.507,26.12-36.049
	c2.358-2.924-1.545-7.089-4.224-4.219c-17.832,19.074-38.426,43.167-44.833,68.974
	C1391.817,1331.393,1394.326,1333.23,1395.675,1331.554z"/>
<path style="fill:#934915;" d="M1234.974,1348.591c31.225-8.346,61.71-25.652,90.499-40.053c3.386-1.691,0.979-7.654-2.611-6.202
	c-29.9,12.102-63.045,23.488-89.949,41.374C1230.453,1345.347,1231.943,1349.4,1234.974,1348.591z"/>
<path style="fill:#934915;" d="M1216.625,1466.077c1.832,2.836,5.886,0.97,5.291-2.231c-4.341-23.537-16.478-48.473-27.615-69.593
	c-1.545-2.928-6.163-0.906-5.296,2.232C1195.339,1419.403,1203.632,1445.95,1216.625,1466.077z"/>
<path style="fill:#934915;" d="M1170.204,1487.188c3.04-3.177-1.554-7.698-4.799-4.799c-21.461,19.186-45.91,39.615-62.894,62.972
	c-1.116,1.54,1.072,3.635,2.602,2.602C1129.035,1531.792,1150.307,1507.992,1170.204,1487.188z"/>
<path style="fill:#934915;" d="M1205.522,1626.219c4.322,33.169,15.172,75.391,33.993,103.415c1.199,1.783,3.606,0.604,3.308-1.393
	c-2.792-18.772-11.259-37.062-17.194-55.074c-5.306-16.097-9.992-32.278-16.648-47.883
	C1208.275,1623.631,1205.288,1624.43,1205.522,1626.219z"/>
<path style="fill:#934915;" d="M1174.628,1700.713c8.341-22.68,8.838-49.281,7.352-73.12c-0.292-4.697-7.108-4.74-7.332,0
	c-1.135,24.049-4.789,48.501-4.375,72.531C1170.316,1702.72,1173.785,1703.008,1174.628,1700.713z"/>
<path style="fill:#934915;" d="M1305.493,1659.967c2.061,1.627,4.756-0.331,3.625-2.796c-8.531-18.607-26.475-34.295-42.792-46.1
	c-2.641-1.91-5.359,2.124-3.342,4.336c6.933,7.605,14.047,15.011,21.052,22.543
	C1291.047,1645.492,1297.371,1653.57,1305.493,1659.967z"/>
<path style="fill:#934915;" d="M1239.666,1891.187c-15.786,4.643-30.232,13.808-45.437,20.166
	c-17.325,7.245-35.074,13.013-53.237,17.768c-4.112,1.082-2.373,7.396,1.759,6.373c32.068-7.947,73.646-18.407,98.767-41.131
	C1242.935,1893.078,1241.444,1890.666,1239.666,1891.187z"/>
<path style="fill:#934915;" d="M1099.125,1701.955c-0.049-3.172-5.316-4.175-5.778-0.779c-5.121,37.466-6.694,84.687,5.179,121.032
	c0.686,2.105,3.707,1.696,3.825-0.516c1.047-19.79-2.363-39.932-3.021-59.756C1098.667,1741.926,1099.418,1721.96,1099.125,1701.955
	z"/>
<path style="fill:#934915;" d="M1051.535,1826.398c11.649-23.888,17.096-52.375,22.777-78.183c0.799-3.649-4.414-5.086-5.588-1.54
	c-8.292,25.111-18.139,52.39-20.307,78.879C1048.28,1827.188,1050.819,1827.865,1051.535,1826.398z"/>
<path style="fill:#934915;" d="M1157.054,1746.691c-3.357-3.011-7.868,1.545-4.926,4.926c5.34,6.139,10.266,12.823,14.626,19.708
	c3.63,5.734,6.251,13.34,11.352,17.818c1.769,1.554,4.429,0.482,4.556-1.885c0.409-7.464-4.96-15.503-8.896-21.51
	C1169.045,1758.54,1163.466,1752.425,1157.054,1746.691z"/>
<path style="fill:#934915;" d="M1214.453,1520.601c-33.651,28.117-71.625,56.945-99.752,90.695
	c-1.773,2.129,0.521,5.895,3.182,4.121c36.736-24.487,69.696-59.391,101.374-90.017
	C1222.448,1522.316,1217.756,1517.843,1214.453,1520.601z"/>
<path style="fill:#934915;" d="M982.762,1629.034c-4.285-2.733-9.661,3.927-5.537,7.182c18.295,14.431,41.184,27.737,64.828,29.944
	c2.193,0.205,2.772-2.948,1.077-3.961C1023.393,1650.384,1002.258,1641.473,982.762,1629.034z"/>
<path style="fill:#934915;" d="M1085.357,1892.761c-25.783,10.514-50.665,22.85-75.493,35.479c-3.469,1.764-0.424,6.719,3.016,5.155
	c25.145-11.415,50.124-23.026,74.221-36.502C1089.269,1895.68,1087.778,1891.772,1085.357,1892.761z"/>
<path style="fill:#934915;" d="M877.257,1856.196c-0.334-4.653-7.323-4.775-7.33,0c-0.022,15.425,7.795,28.926,22.03,35.021
	c2.965,1.272,5.067-2.334,2.512-4.297C885.067,1879.709,878.107,1868.079,877.257,1856.196z"/>
<path style="fill:#934915;" d="M937.355,1621.668c-15.932,6.816-32.146,14.943-45.74,25.763c-1.589,1.267,0.129,4.064,1.981,3.406
	c16.361-5.817,31.856-15.337,46.041-25.266C942.068,1623.875,940.005,1620.532,937.355,1621.668z"/>
<path style="fill:#934915;" d="M817.652,1626.126c-9.934-2.504-20.248-1.954-30.292-0.312c-3.459,0.565-2.124,5.242,0.758,5.598
	c9.841,1.218,19.964,1.276,29.534-1.535C819.454,1629.351,819.555,1626.603,817.652,1626.126z"/>
<path style="fill:#934915;" d="M1647.397,1279.11c7.152,11.323,13.695,24.239,23.722,33.247c2.139,1.924,5.856,0.088,4.994-2.904
	c-3.746-12.941-12.429-24.375-19.508-35.722c-8.088-12.965-16.356-25.686-25.428-37.983c-2.991-4.054-9.321-0.614-6.879,4.02
	C1631.412,1253.264,1639.256,1266.214,1647.397,1279.11z"/>
<path style="fill:#934915;" d="M1682.545,1360.83c-11.201,10.612-20.819,22.782-30.704,34.602
	c-9.018,10.782-18.236,21.364-25.081,33.671c-1.125,2.026,1.398,3.717,3.055,2.358c11.966-9.798,21.515-22.071,31.41-33.901
	c9.008-10.772,18.226-21.413,25.939-33.169C1689.044,1361.532,1684.912,1358.589,1682.545,1360.83z"/>
<path style="fill:#934915;" d="M1615.548,1539.207c6.085,8.117,13.847,19.781,24.322,22.008c1.564,0.331,3.274-1.028,2.729-2.729
	c-3.201-9.925-13.535-17.374-19.664-25.662c-7.104-9.603-12.979-20.058-18.617-30.567c-1.988-3.703-8.224-1.179-6.865,2.894
	C1601.585,1517.541,1607.709,1528.757,1615.548,1539.207z"/>
<path style="fill:#934915;" d="M1695.305,1450.253c-3.303-2.392-7.527,3.035-4.385,5.686c7.04,5.939,13.788,12.326,20.073,19.064
	c5.749,6.173,10.353,13.924,17.769,18.163c1.54,0.882,3.074-0.565,2.791-2.144c-1.549-8.735-8.691-15.732-14.582-22.002
	C1710.369,1461.99,1703.11,1455.904,1695.305,1450.253z"/>
<path style="fill:#934915;" d="M1787.816,1271.442c-11.099,13.837-21.627,28.102-32.945,41.774
	c-10.226,12.351-21.866,23.761-31.074,36.901c-0.935,1.335,0.95,3.279,2.29,2.289c26.149-19.328,48.989-50.197,65.783-77.836
	C1793.351,1272.134,1789.687,1269.113,1787.816,1271.442z"/>
<path style="fill:#934915;" d="M1701.307,1221.357c14.197,7.78,30.334,17.715,46.65,19.786c1.7,0.215,2.641-2.334,1.408-3.401
	c-12.366-10.675-30.748-16.034-45.963-21.345C1700.484,1215.378,1698.632,1219.89,1701.307,1221.357z"/>
<path style="fill:#934915;" d="M1675.724,1610.783c-33.88,19.625-69.447,44.512-97.783,71.654c-0.838,0.804,0.229,2.075,1.208,1.564
	c34.743-18.159,69.715-43.932,99.206-69.807C1680.235,1612.542,1677.818,1609.57,1675.724,1610.783z"/>
<path style="fill:#934915;" d="M1579.831,1639.212c0.819,1.286,3.298,0.916,3.118-0.843c-2.236-21.998-11.386-43.391-20.351-63.411
	c-1.505-3.362-6.636-0.926-5.788,2.441C1562.048,1598.325,1568.143,1620.844,1579.831,1639.212z"/>
<path style="fill:#934915;" d="M1574.691,1746.354c-17.545,6.095-33.622,16.648-49.666,25.88
	c-16.151,9.291-32.468,18.231-47.226,29.647c-1.52,1.174,0.132,3.932,1.89,3.25c17.433-6.728,33.545-16.112,49.871-25.14
	c16.205-8.955,33.481-17.252,47.776-29.101C1579.412,1749.166,1577.185,1745.487,1574.691,1746.354z"/>
<path style="fill:#934915;" d="M1521.556,1727.451c-0.501-16.853-5.944-37.13-14.3-51.766c-1.296-2.271-5.042-1.316-4.974,1.345
	c0.433,16.848,6.246,37.023,14.548,51.703C1518.053,1730.89,1521.629,1729.974,1521.556,1727.451z"/>
<path style="fill:#934915;" d="M1460.109,1836.303c-17.432,6.109-38.558,11.825-53.349,23.264c-2.11,1.632,0.317,4.214,2.29,3.932
	c18.08-2.582,37.125-13.934,53.257-21.988C1465.166,1840.084,1463.173,1835.231,1460.109,1836.303z"/>
<path style="fill:#B66516;" d="M729.983,1320.893c6.48,7.435,11.949,18.948,20.755,23.683c1.393,0.75,3.22-0.175,3.201-1.832
	c-0.127-10.285-9.515-20.112-15.897-27.586c-8.195-9.588-17.306-17.788-27.878-24.643c-3.569-2.314-7.676,2.991-4.553,5.895
	C714.027,1304.241,722.422,1312.226,729.983,1320.893z"/>
<path style="fill:#B66516;" d="M639.409,1415.855c7.773-11.021,9.708-25.476,12.747-38.445c3.591-15.328,6.217-30.504,8.592-46.046
	c0.587-3.84-4.692-5.501-5.932-1.637c-5.135,15.98-9.754,31.756-13.574,48.131c-2.901,12.448-6.923,24.828-4.979,37.583
	C636.509,1417.054,638.656,1416.918,639.409,1415.855z"/>
<path style="fill:#B66516;" d="M640.544,1469.819c-3.121-4.117-9.718-0.633-7.111,4.156c12.256,22.505,26.392,49.233,45.125,66.996
	c1.822,1.73,5.384,0.039,4.461-2.597C674.497,1514.033,656.03,1490.228,640.544,1469.819z"/>
<path style="fill:#B66516;" d="M735.937,1385.77c-18.519,10.534-40.329,31.421-45.705,52.658c-0.441,1.744,1.659,2.909,2.95,1.72
	c8.319-7.674,14.351-17.481,21.875-25.929c7.613-8.541,16.061-16.131,24.171-24.185
	C741.425,1387.856,738.621,1384.245,735.937,1385.77z"/>
<path style="fill:#B66516;" d="M604.383,1238.882c-12.397,13.013-23.464,27.425-34.522,41.579
	c-9.949,12.735-20.809,25.276-28.241,39.668c-1.126,2.183,1.51,4.166,3.34,2.577c13.501-11.693,24.222-26.879,35.208-40.892
	c10.018-12.774,20.244-25.559,29.045-39.206C611.111,1239.671,606.787,1236.358,604.383,1238.882z"/>
<path style="fill:#B66516;" d="M529.104,1271.529c1.598,1.384,4.266-0.37,3.055-2.353c-16.039-26.343-37.306-50.455-58.597-72.736
	c-3.213-3.367-9.528,1.199-6.609,5.096C485.479,1226.272,505.728,1251.315,529.104,1271.529z"/>
<path style="fill:#B66516;" d="M579.423,1386.17c-14.492,16.716-29.486,33.822-40.691,52.964c-1.564,2.665,2.058,5.457,4.263,3.289
	c15.812-15.542,28.733-34.275,41.403-52.414C586.444,1387.081,581.779,1383.456,579.423,1386.17z"/>
<path style="fill:#B66516;" d="M451.192,1333.02c-2.867-3.318-8.324,0.979-6.041,4.663c8.862,14.295,18.426,31.518,31.554,42.368
	c2.37,1.958,7.381,0.19,5.897-3.435C475.996,1360.45,462.49,1346.107,451.192,1333.02z"/>
<path style="fill:#B66516;" d="M575.823,1559.69c12.921-21.159,20.346-47.639,27.625-71.172c0.713-2.304-2.919-3.937-3.971-1.676
	c-10.405,22.392-22.673,46.982-27.293,71.313C571.774,1560.313,574.595,1561.702,575.823,1559.69z"/>
<path style="fill:#B66516;" d="M494.914,1481.731c-3.74-2.928-8.999,1.881-5.377,5.374c13.51,13.038,26.955,26.105,43.306,35.508
	c2.334,1.339,4.156-1.599,2.687-3.484C524.064,1504.445,509.509,1493.146,494.914,1481.731z"/>
<path style="fill:#B66516;" d="M645.486,1673.609c5.208-13.813,6.042-29.491,7.966-44.131c2.212-16.833,4.77-33.754,4.521-50.753
	c-0.054-3.532-5.291-4.35-6.222-0.843c-3.864,14.553-5.374,29.427-7.172,44.346c-2,16.575-5.64,34.168-3.717,50.757
	C641.17,1675.621,644.517,1676.182,645.486,1673.609z"/>
<path style="fill:#B66516;" d="M564.851,1619.183c-3.52-1.593-8.195,3.05-4.55,5.895c13.111,10.251,28.044,19.391,43.847,24.823
	c2.156,0.741,3.798-2.27,2.2-3.781C594.488,1634.9,579.672,1625.887,564.851,1619.183z"/>
<path style="fill:#B66516;" d="M703.396,1661.58c-4.477,13.296-5.113,27.703-6.453,41.603c-1.535,15.908-3.722,31.888-3.661,47.878
	c0.012,3.523,5.557,4.492,6.31,0.853c2.857-13.788,3.892-27.898,5.371-41.89c1.671-15.8,4.563-32.048,2.611-47.878
	C707.286,1659.831,704.205,1659.178,703.396,1661.58z"/>
<path style="fill:#B66516;" d="M634.191,1712.859c-4.638-2.875-8.726,4.292-4.249,7.269c8.56,5.695,16.865,12.19,26.862,15.094
	c2.526,0.736,3.968-2.363,2.421-4.156C652.427,1723.178,642.936,1718.291,634.191,1712.859z"/>
<path style="fill:#B66516;" d="M738.751,1749.166c1.079,28.176,7.101,56.512,12.044,84.214c0.558,3.128,6.005,2.441,5.601-0.755
	c-3.535-27.937-6.197-56.808-13.554-84.009C742.237,1746.384,738.66,1746.783,738.751,1749.166z"/>
<path style="fill:#B66516;" d="M768.029,1287.383c5.496,4.765,11.053,7.527,18.4,7.63c1.822,0.024,2.304-2.358,0.889-3.288
	c-4.855-3.181-10.166-6.353-14.577-10.159c-1.969-1.7-3.771-3.634-5.527-5.549c-2.117-2.309-5.462-4.891-7.038-7.532
	c-0.67-1.12-2.548-0.395-2.149,0.906c1.026,3.357,1.033,6.431,2.814,9.583C762.668,1282.204,765.24,1284.967,768.029,1287.383z"/>
<path style="fill:#B66516;" d="M681.957,1249.332c-21.25,18.344-44.763,35.177-64.288,55.337c-1.632,1.686,0.427,4.277,2.468,3.201
	c24.926-13.16,46.37-34.485,65.466-54.889C687.896,1250.531,684.454,1247.179,681.957,1249.332z"/>
<path style="fill:#B66516;" d="M488.127,1302.336c-9.964-16.623-24.165-31.006-37.457-44.955c-2.38-2.5-7.106,0.925-4.904,3.786
	c11.81,15.298,23.793,31.552,38.735,43.966C486.414,1306.725,489.56,1304.728,488.127,1302.336z"/>
<path style="fill:#FFFEFD;" d="M1610.783,1043.861c-10.919,0.77-18.095,22.227-26.641,30.695
	c-21.949,21.759-53.832,32.735-84.288,34.075c-43.81,1.92-86.45-12.355-128.872-23.464c-42.421-11.108-88.034-19.045-129.515-4.838
	c-18.207,6.236-37.525,22.29-32.663,40.911c2.538,9.715,11.06,16.57,19.445,22.095c54.29,35.751,121.803,45.125,186.806,45.515
	c37.189,0.224,74.757-2.251,110.421-12.789c35.664-10.543,69.53-29.661,93.091-58.436c10.148-12.395,18.553-27.523,17.559-43.513
	C1635.417,1062.672,1624.796,1042.872,1610.783,1043.861z"/>
<path style="fill:#FFFEFD;" d="M1124.528,1121.683c-31.177-9.359-18.363,17.125-28.804,32.126
	c-4.989,7.167-12.706,11.927-20.536,15.795c-22.986,11.347-48.925,16.653-74.519,15.235c-18.59-1.028-36.843-5.51-55.413-6.855
	c-8.726-0.633-20.641,2.451-20.185,11.186c0.211,4.049,3.335,7.298,6.475,9.861c12.507,10.212,28.095,15.873,43.705,20
	c32.838,8.682,67.259,11.347,101.047,7.829c17.729-1.846,35.683-5.535,50.972-14.704c15.288-9.174,27.634-24.614,29.427-42.353
	C1158.799,1148.996,1144.563,1127.695,1124.528,1121.683z"/>
<path style="fill:#E2E3E2;" d="M733.966,1055.164c-2.232,2.85-3.259,7.406-0.575,9.833c6.621,5.992,20.845-1.574,29.116,0.974
	c6.758,2.08,9.33,6.825,14.268,11.162c13.561,11.907,36.129,6.192,52.485,2.753c6.882-1.447,14.485-3.917,17.598-10.227
	c-3.508-0.901-4.078-6.071-1.961-9.004c2.119-2.938,5.717-4.312,8.906-6.027c3.189-1.715,6.414-4.414,6.553-8.029
	c0.219-5.652-6.685-8.492-12.271-9.398c-14.352-2.328-28.88-2.538-43.357-1.365l6.65,17.043c2.025,5.184-0.563,11.084-5.749,13.106
	c-5.184,2.022-11.084-0.565-13.106-5.749l-8.508-21.801c-11.151,1.902-22.212,4.477-33.059,7.565
	C744.66,1047.793,738.005,1050.009,733.966,1055.164z"/>
<path style="fill:#9C7E4A;" d="M784.016,1038.435l8.508,21.801c2.022,5.184,7.922,7.771,13.106,5.749
	c5.187-2.022,7.774-7.922,5.749-13.106l-6.65-17.043l-22.369-57.324l-41.766-107.031l-0.004-0.008L635.634,602.512
	c-0.215,0.164-0.424,0.336-0.64,0.499c-0.25,0.203-0.5,0.408-0.758,0.602c-0.219,0.163-0.452,0.305-0.672,0.468
	c-4.859,3.593-9.938,6.888-15.164,9.951l102.13,261.717l41.54,106.45L784.016,1038.435z"/>
<path style="fill:#E52024;" d="M839.279,493.133c18.638-14.621,33.717-33.471,43.23-54.787c3.452-7.644,6.234-15.922,5.213-24.205
	c-2.078-17.194-18.955-28.502-34.243-37.447c-74.443-36.044-145.294-78.494-214.77-122.748
	c-34.736-22.09-69.086-44.706-103.437-67.327c-15.43-10.144-36.428-29.876-57.708-38.718
	c79.973,74.689,159.878,149.384,239.851,224.107C759.199,411.043,801.301,450.361,839.279,493.133z"/>
<path style="fill:#E52024;" d="M634.224,603.613c0.26-0.195,0.51-0.405,0.77-0.602c0.216-0.164,0.425-0.335,0.64-0.499
	c12.627-9.647,24.109-20.85,35.884-31.574c3.665-3.337,7.356-6.632,11.126-9.808c6.196-5.22,12.58-10.16,19.386-14.481l-0.001-0.005
	c-2.221-6.2-4.839-12.26-7.606-18.139c-11.391-24.098-25.657-46.826-39.888-69.442c-36.541-58.129-73.118-116.263-109.695-174.392
	c-28.607-45.485-54.811-95.863-85.6-141.242c-1.371-0.064-2.725-0.031-4.075,0.057c-0.291,0.019-0.585,0.046-0.875,0.073
	c-1.288,0.118-2.572,0.289-3.854,0.56c-0.037,0.008-0.075,0.008-0.113,0.016l-0.088,0.01l-0.205,0.023
	c-3.019,0.661-5.905,2.048-8.672,3.998c-3.137,2.21-6.119,5.146-8.943,8.684l0.005,0.02c3.931,14.58,9.024,28.661,10.879,37.184
	c7.349,33.895,14.485,67.819,21.362,101.783c13.759,67.961,26.604,136.063,38.47,204.341c6.733,38.645,13.174,77.364,19.289,116.083
	c1.238,7.859,2.548,15.893,4.478,23.712c2.911-0.034,5.786-0.141,8.697-0.316c24.917-1.556,49.387-8.355,71.545-19.473
	c3.829-1.921,7.574-3.992,11.262-6.153c5.226-3.063,10.304-6.357,15.164-9.951C633.782,603.921,634.009,603.774,634.224,603.613z"/>
<path style="fill:#E52024;" d="M367.609,621.581c-0.952-44.248,0.845-88.536,4.509-132.574
	c6.658-80.185,19.695-159.63,34.455-238.582c5.25-27.971,10.324-55.279,18.285-82.266c-15.325,26.568-25.26,67.435-30.509,83.289
	c-31.566,95.508-63.064,191.054-94.63,286.567c-8.843,26.777-35.301,84.838-10.076,109.954
	c18.497,18.426,49.605,11.523,78.071,2.646C368.067,640.889,367.821,631.096,367.609,621.581z"/>
<path style="fill:#DFB47B;" d="M1303.817,940.626c-0.828,1.642,0.55,3.859,2.504,3.255c14.495-4.463,26.748-16.083,40.03-23.391
	c16.716-9.198,34.616-15.323,52.565-21.569c4.906-1.705,2.836-8.268-2.09-7.591c-18.86,2.577-36.638,9.184-53.505,17.9
	C1329.273,916.494,1311.188,925.99,1303.817,940.626z"/>
<path style="fill:#DFB47B;" d="M1248.275,918.789c12.506-4.926,23.02-12.18,34.577-19.031c12.599-7.474,25.793-13.832,38.519-21.062
	c4.166-2.363,1.398-9.384-3.313-7.859c-25.384,8.229-55.274,22.548-72.473,43.337
	C1244.041,916.046,1245.43,919.905,1248.275,918.789z"/>
<path style="fill:#DFB47B;" d="M1125.006,918.96c30.942-18.383,61.949-32.921,95.201-46.553c4.322-1.769,2.772-7.922-1.949-7.065
	c-35.42,6.421-70.295,25.013-96.541,49.354C1119.447,916.801,1122.37,920.529,1125.006,918.96z"/>
<path style="fill:#DFB47B;" d="M1031.788,919.764c31.187-16.19,60.268-34.933,92.984-48.238c4.609-1.876,2.884-9.277-2.119-7.679
	c-34.07,10.889-68.428,26.314-93.661,52.292C1027.13,918.054,1029.474,920.962,1031.788,919.764z"/>
<path style="fill:#DFB47B;" d="M898.122,933.484c33.791-21.004,64.312-42.348,101.973-56.526c3.688-1.388,2.28-7.133-1.661-6.022
	c-37.376,10.509-77.199,29.335-102.56,59.634C894.597,932.095,896.217,934.667,898.122,933.484z"/>
<path style="fill:#DFB47B;" d="M833.208,931.296c23.893-13.603,46.597-32.424,67.598-50.25c2.697-2.286-0.738-6.173-3.617-4.687
	c-24.068,12.39-49.611,30.533-66.282,51.956C829.657,929.917,831.189,932.446,833.208,931.296z"/>
<path style="fill:#DFB47B;" d="M626.897,975.617c-0.833,1.048,0.212,2.801,1.537,1.988c26.277-16.136,50.474-35.026,77.354-50.455
	c3.067-1.764,0.373-5.915-2.694-4.609C675.64,934.195,645.72,951.968,626.897,975.617z"/>
<path style="fill:#DFB47B;" d="M547.384,1013.567c30.207-32.473,59.001-62.212,95.549-87.864c2.604-1.827,0.37-5.778-2.512-4.297
	c-38.411,19.722-75.593,51.289-96.163,89.749C543.226,1013.084,545.789,1015.281,547.384,1013.567z"/>
<path style="fill:#DFB47B;" d="M1590.637,977.756c38.67-1.983,76.078-4.063,114.802-1.383c2.012,0.141,2.495-3.172,0.482-3.552
	c-37.783-7.133-78.402-7.776-115.561,2.889C1589.263,976.026,1589.434,977.82,1590.637,977.756z"/>
<path style="fill:#DFB47B;" d="M1458.565,952.148c52.887-7.556,103.259-12.994,156.667-14.173c2.772-0.058,3.669-4.643,0.687-5.067
	c-51.021-7.216-109.9-2.314-158.265,15.927C1455.549,949.63,1456.391,952.46,1458.565,952.148z"/>
</svg>
